<svg width="832" height="909" viewBox="0 0 832 909" fill="none" xmlns="http://www.w3.org/2000/svg">
<path d="M829.494 501.717L745.57 498.152L746.211 483.046L817.427 486.071L817.661 480.556L746.446 477.531L747.087 462.424L831.012 465.989L829.494 501.717Z" fill="#FF4726"/>
<path d="M742.654 517.634L745.863 518.082C744.772 516.637 744.026 515.039 743.624 513.286C743.291 511.624 743.251 509.882 743.506 508.06C743.738 506.396 744.141 504.958 744.714 503.745C745.366 502.544 746.313 501.545 747.555 500.749C748.786 500.033 750.425 499.575 752.472 499.376C754.599 499.188 757.207 499.31 760.297 499.741L778.005 502.213C780.462 502.556 782.416 503.313 783.867 504.485C785.388 505.747 786.638 507.497 787.618 509.734L794.472 524.866L811.467 527.238C812.18 527.338 812.808 527.183 813.349 526.774C813.891 526.365 814.212 525.804 814.311 525.091C814.411 524.378 814.256 523.751 813.847 523.209C813.438 522.667 812.877 522.346 812.164 522.247L798.021 520.273L800.111 505.298L816.75 507.62C820.077 508.085 822.73 509.626 824.707 512.245C826.684 514.863 827.44 517.836 826.976 521.164L825.416 532.336C824.952 535.663 823.411 538.316 820.792 540.293C818.174 542.27 815.201 543.026 811.873 542.562L740.564 532.609L742.654 517.634ZM780.329 522.892C779.859 521.05 779.363 519.688 778.839 518.807C778.395 517.938 777.183 517.364 775.202 517.088L757.731 514.65C757.018 514.55 756.391 514.705 755.849 515.114C755.307 515.523 754.987 516.084 754.887 516.797C754.788 517.51 754.943 518.138 755.352 518.679C755.761 519.221 756.322 519.542 757.035 519.641L780.329 522.892Z" fill="#FF4726"/>
<path d="M814.339 584.895L732.559 565.71L736.013 550.989L805.408 567.27L806.669 561.896L737.273 545.615L740.727 530.895L822.506 550.081L814.339 584.895Z" fill="#FF4726"/>
<path d="M801.084 624.56L721.485 597.728L726.315 583.4L761.566 595.283L728.193 577.828L732.755 564.296L812.354 591.128L807.486 605.57L772.235 593.687L805.569 611.256L801.084 624.56Z" fill="#FF4726"/>
<path d="M789.874 650.302L783.674 664.092L706.952 629.598L713.152 615.807L742.374 628.946C741.56 627.44 741.117 625.793 741.043 624.005C740.937 622.291 741.261 620.595 742.015 618.917C743.295 616.071 745.379 614.07 748.267 612.912C751.123 611.828 753.974 611.925 756.819 613.205L798.19 631.805L791.941 645.705L755.167 629.171C754.51 628.876 753.864 628.849 753.23 629.09C752.595 629.331 752.13 629.78 751.835 630.436C751.54 631.093 751.513 631.739 751.753 632.373C751.994 633.008 752.443 633.473 753.1 633.768L789.874 650.302Z" fill="#FF4726"/>
<path d="M737.864 678.51L755.272 690.04C756.606 690.924 757.696 692.03 758.543 693.358C759.457 694.731 760.061 696.138 760.353 697.58C760.669 699.132 760.695 700.685 760.434 702.239C760.128 703.86 759.533 705.337 758.65 706.671L752.421 716.075C751.538 717.409 750.432 718.5 749.103 719.347C747.73 720.261 746.289 720.842 744.781 721.091C743.296 721.45 741.743 721.477 740.122 721.171C738.568 720.91 737.124 720.337 735.79 719.454L722.684 710.773C718.949 708.299 716.144 705.29 714.27 701.746C712.396 698.201 710.754 694.523 709.344 690.711C708.002 686.943 706.493 683.209 704.818 679.508C703.165 675.919 700.704 672.753 697.434 670.012L686.235 686.919L675.63 679.896L695.244 650.282L705.849 657.306C708.94 659.449 711.421 661.716 713.292 664.106C715.118 666.564 716.613 669.089 717.774 671.681C718.936 674.274 719.92 676.845 720.726 679.394C721.488 682.01 722.406 684.536 723.478 686.974C724.506 689.478 725.856 691.859 727.527 694.117C729.198 696.376 731.467 698.454 734.335 700.354L741.538 705.125C742.139 705.523 742.771 705.654 743.437 705.519C744.102 705.383 744.633 705.016 745.031 704.415C745.428 703.815 745.56 703.182 745.424 702.517C745.289 701.852 744.922 701.321 744.321 700.923L729.515 691.116L737.864 678.51Z" fill="#FF4726"/>
<path d="M673.925 681.374L684.748 689.741L676.308 700.659L665.485 692.292L673.925 681.374Z" fill="#FF4726"/>
<path d="M710.924 767.949C708.681 770.451 705.922 771.791 702.646 771.97C699.37 772.149 696.481 771.117 693.979 768.874L649.304 728.822C646.802 726.579 645.462 723.82 645.283 720.544C645.105 717.267 646.137 714.379 648.38 711.877L655.909 703.478C658.152 700.976 660.912 699.636 664.188 699.457C667.464 699.278 670.353 700.31 672.855 702.553L717.529 742.605C720.031 744.848 721.372 747.608 721.55 750.884C721.729 754.16 720.697 757.049 718.454 759.55L710.924 767.949ZM665.174 715.974C664.638 715.493 664.031 715.272 663.353 715.309C662.675 715.346 662.096 715.632 661.615 716.168C661.135 716.704 660.913 717.311 660.95 717.989C660.987 718.667 661.274 719.246 661.81 719.727L701.749 755.533C702.285 756.014 702.892 756.236 703.57 756.199C704.248 756.162 704.827 755.875 705.307 755.339C705.788 754.803 706.01 754.196 705.973 753.518C705.936 752.84 705.649 752.261 705.113 751.78L665.174 715.974Z" fill="#FF4726"/>
<path d="M296.331 903.423L308.58 820.321L323.539 822.526L318.341 857.785L323.327 858.52L328.525 823.261L343.483 825.466L331.233 908.568L316.275 906.363L321.472 871.104L316.486 870.369L311.289 905.628L296.331 903.423Z" fill="#FF4726"/>
<path d="M290.151 815.493L289.375 818.639C290.924 817.703 292.591 817.125 294.376 816.906C296.063 816.746 297.8 816.886 299.587 817.326C301.218 817.729 302.607 818.277 303.754 818.972C304.881 819.745 305.777 820.79 306.441 822.107C307.027 823.405 307.314 825.083 307.301 827.14C307.269 829.274 306.879 831.856 306.132 834.885L301.85 852.245C301.256 854.652 300.301 856.518 298.986 857.842C297.574 859.224 295.705 860.287 293.379 861.032L277.62 866.291L273.511 882.951C273.338 883.65 273.427 884.29 273.779 884.871C274.13 885.452 274.655 885.829 275.354 886.001C276.053 886.174 276.693 886.084 277.274 885.733C277.855 885.382 278.231 884.857 278.404 884.158L281.824 870.294L296.504 873.915L292.48 890.226C291.676 893.488 289.869 895.968 287.061 897.665C284.253 899.362 281.218 899.808 277.956 899.003L267.004 896.301C263.742 895.497 261.262 893.69 259.565 890.882C257.868 888.074 257.422 885.039 258.227 881.777L275.471 811.872L290.151 815.493ZM281.04 852.426C282.922 852.149 284.327 851.795 285.257 851.365C286.168 851.013 286.863 849.866 287.342 847.924L291.567 830.798C291.739 830.099 291.65 829.459 291.299 828.878C290.948 828.297 290.423 827.92 289.724 827.747C289.025 827.575 288.385 827.664 287.804 828.015C287.223 828.367 286.846 828.892 286.673 829.591L281.04 852.426Z" fill="#FF4726"/>
<path d="M215.554 879.645L226.329 848.834C227.166 846.924 228.429 845.374 230.116 844.184C231.803 842.994 233.648 842.325 235.649 842.178C234.202 840.74 233.19 839.03 232.612 837.048C232.007 835.141 231.973 833.18 232.508 831.164L243.283 800.353L257.556 805.345L246.622 836.608C246.385 837.288 246.413 837.933 246.708 838.545C247.002 839.156 247.49 839.581 248.169 839.819L250.548 840.651L262.313 807.008L276.585 812L248.856 891.291L234.584 886.3L246.349 852.657L243.97 851.826C243.291 851.588 242.645 851.616 242.033 851.911C241.422 852.206 240.997 852.693 240.76 853.372L229.826 884.636L215.554 879.645Z" fill="#FF4726"/>
<path d="M195.632 870.628L197.333 866.92C195.82 867.722 194.207 868.171 192.492 868.264C190.67 868.397 188.923 868.08 187.251 867.313C185.869 866.68 184.694 865.788 183.724 864.64C182.649 863.53 181.892 862.303 181.452 860.958C180.907 859.652 180.68 858.227 180.772 856.685C180.757 855.182 181.066 853.74 181.7 852.358L207.961 795.092C209.261 792.256 211.38 790.323 214.316 789.294C217.18 788.231 220.03 788.35 222.866 789.65C224.539 790.417 225.935 791.498 227.056 792.892C228.104 794.253 228.818 795.768 229.196 797.438L238.3 777.585L251.935 783.838L209.376 876.931L195.632 870.628ZM224.294 808.127C224.594 807.473 224.626 806.827 224.39 806.191C224.154 805.554 223.708 805.086 223.054 804.786C222.399 804.486 221.754 804.454 221.117 804.69C220.481 804.926 220.013 805.372 219.713 806.026L197.353 854.784C197.053 855.438 197.021 856.084 197.257 856.72C197.494 857.356 197.939 857.825 198.593 858.125C199.248 858.425 199.893 858.457 200.53 858.221C201.166 857.985 201.634 857.539 201.935 856.885L224.294 808.127Z" fill="#FF4726"/>
<path d="M218.318 782.692L208.045 776.725C207.422 776.363 206.783 776.269 206.127 776.443C205.471 776.617 204.962 777.015 204.6 777.638L172.006 859.317L158.931 851.723L179.727 807.32L151.564 847.443L138.49 839.849L195.081 768.223C197.443 765.432 200.135 763.665 203.156 762.922C206.218 762.11 209.202 762.548 212.108 764.236L224.707 771.693L218.318 782.692Z" fill="#FF4726"/>
<path d="M133.689 836.311L107.672 817.818L115.041 807.45L121.888 812.317L163.184 754.218L175.508 762.978L134.212 821.076L141.059 825.943L133.689 836.311Z" fill="#FF4726"/>
<path d="M86.6906 800.233L75.215 790.388L129.988 726.543L141.463 736.388L120.601 760.706C122.276 760.351 123.981 760.391 125.716 760.825C127.391 761.208 128.926 761.998 130.323 763.196C132.691 765.228 134.022 767.792 134.315 770.89C134.548 773.936 133.649 776.643 131.618 779.011L102.082 813.438L90.5158 803.515L116.769 772.913C117.238 772.367 117.447 771.755 117.395 771.078C117.343 770.401 117.044 769.828 116.497 769.36C115.951 768.891 115.339 768.682 114.663 768.734C113.986 768.786 113.413 769.085 112.944 769.631L86.6906 800.233Z" fill="#FF4726"/>
<path d="M45.9563 760.077L106.422 701.769L116.918 712.653L90.1401 738.475L121 716.886L130.912 727.165L70.4458 785.473L59.867 774.503L86.6449 748.681L55.7021 770.184L45.9563 760.077Z" fill="#FF4726"/>
<path d="M19.851 727.722L45.3066 707.292C47.0289 706.115 48.9207 705.468 50.982 705.353C53.0434 705.237 54.9618 705.646 56.7374 706.581C56.272 704.595 56.3189 702.608 56.878 700.621C57.3747 698.684 58.3841 697.001 59.9061 695.575L85.3617 675.145L94.8256 686.937L68.9956 707.667C68.4341 708.118 68.1164 708.681 68.0425 709.355C67.9686 710.03 68.157 710.648 68.6076 711.21L70.1849 713.175L97.9802 690.867L107.444 702.659L41.9333 755.236L32.4695 743.444L60.2648 721.137L58.6874 719.171C58.2368 718.61 57.6741 718.292 56.9993 718.218C56.3245 718.144 55.7063 718.333 55.1448 718.783L29.3149 739.514L19.851 727.722Z" fill="#FF4726"/>
<path d="M19.8556 197.669L89.7172 244.31L81.3219 256.885L22.0393 217.307L18.9744 221.898L78.2569 261.476L69.8616 274.051L0 227.411L19.8556 197.669Z" fill="#FF4726"/>
<path d="M32.2959 182.141L35.4685 184.706C35.0649 183.042 35.0299 181.368 35.3635 179.683C35.6852 177.886 36.4245 176.272 37.5814 174.841C38.5371 173.659 39.6913 172.74 41.0441 172.085C42.385 171.317 43.7616 170.887 45.1739 170.795C46.5743 170.59 48.0104 170.722 49.4823 171.192C50.9422 171.549 52.2632 172.206 53.4451 173.162L102.434 212.773C104.86 214.735 106.209 217.266 106.48 220.366C106.802 223.403 105.982 226.135 104.02 228.561C102.863 229.992 101.471 231.078 99.8424 231.819C98.2647 232.498 96.62 232.815 94.9086 232.768L111.891 246.5L102.46 258.164L22.7891 193.898L32.2959 182.141ZM85.764 225.374C86.3238 225.827 86.9413 226.017 87.6164 225.946C88.2914 225.875 88.8553 225.559 89.308 224.999C89.7607 224.439 89.9513 223.822 89.8799 223.147C89.8084 222.472 89.4928 221.908 88.9329 221.455L47.2222 187.729C46.6623 187.276 46.0448 187.085 45.3698 187.157C44.6947 187.228 44.1309 187.544 43.6782 188.104C43.2255 188.664 43.0348 189.281 43.1063 189.956C43.1777 190.631 43.4934 191.195 44.0533 191.648L85.764 225.374Z" fill="#FF4726"/>
<path d="M66.4116 144.176C68.7614 141.774 71.5767 140.555 74.8575 140.52C78.1383 140.484 80.9795 141.641 83.3811 143.991L126.267 185.952C128.669 188.302 129.888 191.117 129.924 194.398C129.959 197.679 128.802 200.52 126.452 202.922L118.564 210.984C116.214 213.386 113.399 214.605 110.118 214.64C106.837 214.676 103.996 213.519 101.594 211.169L58.7078 169.208C56.3062 166.858 55.0875 164.043 55.0517 160.762C55.0159 157.481 56.173 154.64 58.5228 152.238L66.4116 144.176ZM109.853 198.096C110.367 198.6 110.964 198.848 111.643 198.84C112.321 198.833 112.913 198.572 113.416 198.057C113.92 197.543 114.168 196.946 114.16 196.267C114.153 195.588 113.892 194.997 113.377 194.494L75.0369 156.98C74.5223 156.477 73.9256 156.228 73.2468 156.236C72.568 156.243 71.9769 156.504 71.4733 157.019C70.9698 157.534 70.7217 158.13 70.7291 158.809C70.7365 159.488 70.9975 160.079 71.5122 160.583L109.853 198.096Z" fill="#FF4726"/>
<path d="M75.1976 123.014C73.8032 121.365 73.1957 119.469 73.3752 117.327C73.5547 115.185 74.4434 113.386 76.0413 111.93L83.4644 105.655C84.0142 105.19 84.5077 104.721 84.9448 104.246C85.3303 103.711 85.0676 102.781 84.1569 101.456L93.2295 93.786L99.1947 100.842C100.176 102.003 100.605 103.316 100.482 104.782C100.369 106.135 99.7836 107.363 98.7261 108.467L90.4783 115.439C89.9284 115.904 89.6251 116.474 89.5685 117.151C89.5118 117.827 89.7158 118.441 90.1807 118.99C90.6455 119.54 91.2161 119.844 91.8926 119.9C92.569 119.957 93.1822 119.753 93.732 119.288L98.3142 115.414C100.88 113.245 103.798 112.298 107.067 112.572C110.337 112.846 113.056 114.266 115.225 116.832L153.961 162.653C156.13 165.219 157.077 168.137 156.803 171.406C156.529 174.676 155.109 177.395 152.543 179.564L143.929 186.846C141.363 189.016 138.445 189.963 135.176 189.689C131.906 189.415 129.187 187.995 127.018 185.429L88.2826 139.608C87.043 138.142 86.1865 136.509 85.7128 134.709C85.3003 132.858 85.3129 131.014 85.7506 129.178C84.1017 129.21 82.5117 128.878 80.9805 128.182C79.4494 127.486 78.0899 126.435 76.902 125.03C76.6954 124.786 76.4583 124.567 76.1906 124.375C75.9323 124.069 75.6014 123.616 75.1976 123.014ZM136.473 173.194C136.938 173.743 137.508 174.047 138.185 174.103C138.861 174.16 139.475 173.956 140.024 173.491C140.574 173.026 140.878 172.456 140.934 171.779C140.991 171.103 140.787 170.49 140.322 169.94L105.693 128.976C105.228 128.426 104.657 128.123 103.981 128.066C103.304 128.009 102.691 128.213 102.141 128.678C101.592 129.143 101.288 129.714 101.232 130.39C101.175 131.066 101.379 131.68 101.844 132.229L136.473 173.194Z" fill="#FF4726"/>
<path d="M140.454 84.4349L188.618 153.256L176.23 161.925L154.901 131.447L171.413 165.296L159.713 173.484L111.55 104.664L124.036 95.9254L145.365 126.403L128.952 92.4851L140.454 84.4349Z" fill="#FF4726"/>
<path d="M160.539 72.736L162.549 76.2864C162.784 74.5906 163.366 73.0201 164.295 71.5751C165.253 70.021 166.533 68.7907 168.135 67.8842C169.457 67.1353 170.868 66.7043 172.367 66.5912C173.896 66.3691 175.334 66.474 176.682 66.9061C178.06 67.2291 179.347 67.8792 180.544 68.8564C181.771 69.7246 182.759 70.82 183.508 72.1428L214.547 126.966C216.084 129.681 216.41 132.53 215.525 135.514C214.709 138.457 212.944 140.698 210.229 142.235C208.628 143.142 206.934 143.641 205.147 143.733C203.43 143.786 201.785 143.477 200.209 142.805L210.97 161.811L197.916 169.201L147.381 80.1852L160.539 72.736ZM194.416 132.572C194.77 133.198 195.275 133.602 195.929 133.783C196.583 133.965 197.223 133.878 197.85 133.523C198.477 133.168 198.88 132.664 199.062 132.01C199.243 131.356 199.156 130.715 198.801 130.089L172.374 83.4105C172.019 82.7839 171.515 82.38 170.861 82.1988C170.207 82.0176 169.566 82.1044 168.94 82.4591C168.313 82.8138 167.909 83.3183 167.728 83.9725C167.547 84.6267 167.634 85.267 167.988 85.8936L194.416 132.572Z" fill="#FF4726"/>
<path d="M204.379 50.8029C207.443 49.4251 210.509 49.3185 213.577 50.4831C216.644 51.6477 218.867 53.7623 220.244 56.8268L244.848 111.55C246.226 114.615 246.333 117.681 245.168 120.748C244.003 123.815 241.889 126.038 238.824 127.416L228.536 132.041C225.472 133.419 222.406 133.526 219.338 132.361C216.271 131.196 214.049 129.082 212.671 126.017L188.067 71.2938C186.689 68.2293 186.583 65.1634 187.747 62.0961C188.912 59.0288 191.026 56.8062 194.091 55.4284L204.379 50.8029ZM225.132 116.862C225.428 117.519 225.893 117.968 226.527 118.208C227.162 118.449 227.807 118.422 228.464 118.127C229.121 117.832 229.57 117.367 229.811 116.732C230.052 116.098 230.024 115.452 229.729 114.795L207.733 65.8726C207.438 65.2159 206.973 64.7671 206.339 64.5261C205.704 64.2852 205.058 64.3123 204.402 64.6075C203.745 64.9028 203.296 65.3677 203.055 66.0023C202.814 66.637 202.841 67.2826 203.137 67.9393L225.132 116.862Z" fill="#FF4726"/>
<path d="M240.231 37.0124L254.54 32.1288L281.711 111.74L267.401 116.624L257.052 86.301C256.507 87.924 255.607 89.3725 254.351 90.6464C253.171 91.8945 251.71 92.8156 249.969 93.41C247.016 94.4177 244.131 94.2612 241.313 92.9405C238.571 91.594 236.697 89.4443 235.689 86.4915L221.038 43.5628L235.461 38.6403L248.484 76.7992C248.717 77.4806 249.138 77.9709 249.747 78.2702C250.356 78.5694 251.002 78.6028 251.683 78.3702C252.364 78.1376 252.855 77.7167 253.154 77.1074C253.453 76.4981 253.487 75.8527 253.254 75.1713L240.231 37.0124Z" fill="#FF4726"/>
<path d="M295.453 22.2125L314.95 103.919L300.243 107.428L291.97 72.7613L287.068 73.9311L295.34 108.598L280.633 112.107L261.136 30.4012L275.843 26.8918L284.116 61.5585L289.018 60.3887L280.746 25.722L295.453 22.2125Z" fill="#FF4726"/>
<path d="M319.673 18.4027L323.785 53.8047L331.89 52.8633C335.228 52.4756 338.182 53.3002 340.755 55.3371C343.327 57.3739 344.807 60.0611 345.194 63.3987L348.005 87.596C348.393 90.9336 347.568 93.8884 345.531 96.4606C343.494 99.0328 340.807 100.513 337.469 100.9L314.345 103.586L304.654 20.1472L319.673 18.4027ZM327.896 89.2067L330.4 88.916C331.115 88.8329 331.683 88.5253 332.105 87.9931C332.526 87.4609 332.695 86.8373 332.612 86.1221L330.535 68.2423C330.452 67.5271 330.145 66.9588 329.612 66.5374C329.08 66.1159 328.457 65.9468 327.741 66.0298L325.238 66.3206L327.896 89.2067ZM357.22 14.0416L366.912 97.4807L351.893 99.2251L342.201 15.7861L357.22 14.0416Z" fill="#FF4726"/>
<path d="M402.871 14.2646L402.546 98.2639L387.427 98.2056L387.57 61.0059L381.547 98.1829L367.267 98.1278L367.591 14.1284L382.831 14.1872L382.687 51.3869L388.831 14.2104L402.871 14.2646ZM395.245 0.0750429C395.229 4.39501 394.417 7.31189 392.812 8.82571C391.286 10.2598 388.923 10.9707 385.723 10.9584C383.883 10.9513 382.324 10.7852 381.045 10.4603C379.766 10.1354 378.729 9.57135 377.932 8.76827C377.135 7.88519 376.579 6.76303 376.265 5.40181C375.95 3.96059 375.797 2.15998 375.806 0L382.885 0.0273304C382.88 1.38732 382.956 2.42762 383.113 3.14823C383.271 3.86884 383.468 4.42961 383.707 4.83053C383.946 5.15146 384.225 5.35254 384.545 5.43377C384.865 5.435 385.185 5.43624 385.505 5.43748C385.825 5.43871 386.145 5.43995 386.465 5.44118C386.785 5.36242 387.066 5.1635 387.307 4.84443C387.548 4.44536 387.751 3.88614 387.913 3.16676C388.076 2.44738 388.16 1.4077 388.165 0.0477124L395.245 0.0750429Z" fill="#FF4726"/>
</svg>
