<svg width="928" height="928" viewBox="0 0 928 928" fill="none" xmlns="http://www.w3.org/2000/svg">
<path d="M128.859 784.59L186.948 723.912L197.87 734.368L173.224 760.113L176.864 763.598L201.51 737.853L212.432 748.309L154.344 808.987L143.422 798.531L168.068 772.786L164.427 769.301L139.781 795.045L128.859 784.59Z" fill="#FF4726"/>
<path d="M175.18 710.057L172.744 712.193C174.55 712.311 176.248 712.791 177.837 713.632C179.313 714.466 180.657 715.574 181.871 716.958C182.978 718.221 183.804 719.465 184.347 720.691C184.83 721.97 184.967 723.34 184.758 724.8C184.496 726.2 183.772 727.74 182.585 729.42C181.338 731.152 179.541 733.047 177.195 735.104L163.753 746.893C161.888 748.529 160.038 749.513 158.202 749.846C156.253 750.172 154.112 749.975 151.778 749.255L135.845 744.555L122.943 755.87C122.402 756.344 122.109 756.921 122.065 757.598C122.021 758.275 122.236 758.885 122.71 759.426C123.185 759.967 123.761 760.26 124.439 760.304C125.116 760.349 125.725 760.134 126.267 759.659L137.003 750.243L146.972 761.611L134.342 772.688C131.816 774.903 128.916 775.904 125.642 775.689C122.368 775.475 119.623 774.105 117.407 771.579L109.97 763.098C107.754 760.572 106.754 757.672 106.968 754.398C107.183 751.124 108.553 748.379 111.079 746.164L165.21 698.689L175.18 710.057ZM146.581 735.139C148.282 735.988 149.638 736.502 150.646 736.681C151.595 736.913 152.821 736.37 154.325 735.051L167.587 723.42C168.128 722.945 168.421 722.369 168.465 721.692C168.51 721.014 168.294 720.405 167.82 719.864C167.345 719.322 166.769 719.03 166.091 718.985C165.414 718.941 164.805 719.156 164.263 719.631L146.581 735.139Z" fill="#FF4726"/>
<path d="M78.0078 721.329L104.333 702.033C106.105 700.932 108.023 700.369 110.088 700.344C112.152 700.318 114.051 700.811 115.784 701.822C115.406 699.818 115.54 697.835 116.185 695.874C116.766 693.96 117.848 692.324 119.431 690.965L145.756 671.669L154.695 683.863L127.983 703.444C127.402 703.87 127.06 704.418 126.957 705.089C126.853 705.76 127.015 706.385 127.44 706.966L128.93 708.999L157.675 687.928L166.614 700.123L98.8653 749.784L89.9264 737.589L118.671 716.519L117.181 714.486C116.756 713.905 116.207 713.563 115.536 713.46C114.865 713.357 114.24 713.518 113.659 713.944L86.9468 733.524L78.0078 721.329Z" fill="#FF4726"/>
<path d="M67.3244 703.793L70.8141 701.679C69.1121 701.494 67.5252 700.959 66.0534 700.073C64.4718 699.161 63.2043 697.918 62.251 696.344C61.4635 695.044 60.9911 693.646 60.8339 692.151C60.5669 690.63 60.6294 689.189 61.0216 687.829C61.3039 686.442 61.9158 685.136 62.8573 683.911C63.689 682.659 64.7549 681.639 66.0549 680.852L119.94 648.212C122.609 646.595 125.447 646.186 128.455 646.982C131.422 647.711 133.713 649.409 135.33 652.078C136.283 653.652 136.832 655.33 136.977 657.113C137.08 658.828 136.819 660.482 136.195 662.076L154.875 650.761L162.647 663.591L75.158 716.726L67.3244 703.793ZM126.136 668.169C126.752 667.796 127.141 667.28 127.303 666.621C127.465 665.961 127.359 665.324 126.986 664.708C126.613 664.092 126.097 663.703 125.438 663.541C124.779 663.379 124.141 663.485 123.525 663.858L77.6457 691.649C77.0299 692.022 76.641 692.538 76.4791 693.197C76.3173 693.856 76.4228 694.494 76.7959 695.11C77.1689 695.725 77.685 696.114 78.3443 696.276C79.0035 696.438 79.6411 696.333 80.2569 695.96L126.136 668.169Z" fill="#FF4726"/>
<path d="M135.677 644.246L130.485 633.561C130.17 632.913 129.692 632.478 129.051 632.257C128.409 632.035 127.765 632.081 127.117 632.395L54.4755 681.964L47.8679 668.365L89.9095 643.135L44.1446 660.701L37.537 647.101L124.476 619.27C127.993 618.273 131.213 618.309 134.135 619.38C137.128 620.416 139.36 622.445 140.828 625.467L147.118 638.688L135.677 644.246Z" fill="#FF4726"/>
<path d="M36.0668 643.006L24.6292 613.206L36.5046 608.648L39.5145 616.49L106.061 590.949L111.479 605.065L44.9323 630.606L47.9422 638.448L36.0668 643.006Z" fill="#FF4726"/>
<path d="M17.3438 589.079L13.1132 574.563L93.8733 551.027L98.1039 565.543L67.3436 574.507C68.9403 575.125 70.3465 576.09 71.5622 577.403C72.7556 578.638 73.6097 580.139 74.1245 581.906C74.9975 584.901 74.7105 587.776 73.2635 590.531C71.7941 593.209 69.5617 594.985 66.5664 595.858L23.0181 608.549L18.754 593.918L57.4635 582.637C58.1548 582.435 58.6637 582.037 58.9902 581.442C59.3167 580.846 59.3792 580.203 59.1778 579.512C58.9763 578.821 58.578 578.312 57.9829 577.985C57.3878 577.659 56.7446 577.596 56.0533 577.798L17.3438 589.079Z" fill="#FF4726"/>
<path d="M5.16233 533.732L87.6141 517.678L90.5037 532.52L53.9893 539.629L91.6274 538.291L94.3565 552.308L11.9048 568.361L8.99221 553.402L45.5065 546.293L7.84554 547.513L5.16233 533.732Z" fill="#FF4726"/>
<path d="M0.819336 493.149L33.2827 489.757C35.368 489.7 37.3085 490.181 39.1041 491.2C40.8997 492.219 42.2909 493.602 43.2778 495.349C43.9618 493.427 45.077 491.782 46.6232 490.414C48.0898 489.055 49.8492 488.187 51.9013 487.812L84.3646 484.42L85.9357 499.459L52.995 502.9C52.2789 502.975 51.7071 503.276 51.2795 503.803C50.852 504.33 50.6757 504.952 50.7505 505.668L51.0123 508.174L86.4594 504.471L88.0305 519.509L4.48514 528.238L2.91408 513.199L38.3612 509.496L38.0993 506.99C38.0245 506.274 37.7235 505.702 37.1962 505.274C36.6689 504.847 36.0472 504.67 35.3311 504.745L2.39039 508.187L0.819336 493.149Z" fill="#FF4726"/>
</svg>
