<svg width="928" height="928" viewBox="0 0 928 928" fill="none" xmlns="http://www.w3.org/2000/svg">
<path d="M926.026 503.204L842.102 499.639L842.744 484.533L913.96 487.558L914.194 482.042L842.978 479.018L843.62 463.911L927.544 467.476L926.026 503.204Z" fill="#FF4726"/>
<path d="M923.622 522.081L919.575 521.563C920.792 522.767 921.701 524.174 922.302 525.783C922.972 527.482 923.19 529.244 922.957 531.069C922.764 532.577 922.264 533.964 921.457 535.232C920.719 536.59 919.773 537.678 918.62 538.499C917.536 539.409 916.244 540.05 914.745 540.423C913.314 540.885 911.845 541.02 910.338 540.827L847.846 532.838C844.752 532.442 842.275 530.996 840.416 528.501C838.548 526.084 837.811 523.329 838.207 520.234C838.44 518.409 839.055 516.753 840.052 515.268C841.038 513.861 842.271 512.729 843.752 511.869L822.089 509.1L823.991 494.221L925.54 507.083L923.622 522.081ZM855.417 513.361C854.703 513.27 854.078 513.431 853.541 513.847C853.004 514.262 852.69 514.827 852.598 515.541C852.507 516.255 852.669 516.881 853.084 517.418C853.499 517.955 854.064 518.269 854.778 518.36L907.985 525.163C908.699 525.254 909.325 525.092 909.862 524.677C910.399 524.261 910.713 523.697 910.804 522.982C910.896 522.268 910.734 521.643 910.319 521.106C909.903 520.569 909.339 520.254 908.624 520.163L855.417 513.361Z" fill="#FF4726"/>
<path d="M914.996 570.262C914.279 573.545 912.539 576.071 909.777 577.842C907.015 579.614 903.993 580.14 900.71 579.423L842.094 566.611C838.812 565.893 836.285 564.153 834.514 561.391C832.743 558.63 832.216 555.607 832.934 552.325L835.342 541.305C836.06 538.023 837.799 535.496 840.561 533.725C843.323 531.954 846.345 531.427 849.628 532.144L908.244 544.957C911.527 545.674 914.053 547.414 915.824 550.176C917.595 552.938 918.122 555.96 917.405 559.242L914.996 570.262ZM849.565 547.607C848.861 547.454 848.224 547.56 847.652 547.926C847.081 548.293 846.718 548.828 846.565 549.531C846.411 550.235 846.517 550.872 846.884 551.443C847.25 552.015 847.785 552.377 848.488 552.531L900.891 563.985C901.594 564.139 902.232 564.033 902.803 563.666C903.375 563.3 903.737 562.765 903.891 562.062C904.045 561.358 903.938 560.721 903.572 560.149C903.206 559.578 902.671 559.215 901.967 559.062L849.565 547.607Z" fill="#FF4726"/>
<path d="M919.096 591.623C921.155 592.274 922.681 593.553 923.672 595.461C924.663 597.368 924.871 599.364 924.296 601.448L921.365 610.715C921.148 611.402 920.981 612.062 920.864 612.697C920.824 613.355 921.542 614.002 923.02 614.637L919.438 625.964L910.628 623.178C909.179 622.72 908.115 621.838 907.437 620.533C906.811 619.328 906.651 617.977 906.957 616.479L910.213 606.182C910.43 605.495 910.382 604.851 910.069 604.249C909.756 603.646 909.256 603.236 908.57 603.019C907.883 602.802 907.239 602.85 906.637 603.163C906.034 603.476 905.625 603.976 905.408 604.662L903.598 610.383C902.585 613.587 900.623 615.945 897.712 617.457C894.8 618.97 891.742 619.22 888.539 618.207L831.331 600.116C828.127 599.103 825.769 597.141 824.257 594.23C822.744 591.318 822.494 588.261 823.507 585.057L826.908 574.302C827.921 571.098 829.884 568.74 832.795 567.228C835.707 565.715 838.764 565.465 841.968 566.478L899.176 584.568C901.006 585.147 902.602 586.071 903.963 587.341C905.299 588.686 906.272 590.253 906.882 592.039C908.259 591.133 909.781 590.565 911.448 590.337C913.114 590.109 914.824 590.272 916.579 590.827C916.884 590.923 917.201 590.981 917.53 591.002C917.912 591.122 918.434 591.329 919.096 591.623ZM840.498 581.871C839.812 581.654 839.168 581.702 838.565 582.015C837.963 582.328 837.553 582.828 837.336 583.514C837.119 584.201 837.167 584.845 837.48 585.448C837.793 586.05 838.292 586.46 838.979 586.677L890.123 602.85C890.809 603.067 891.454 603.019 892.056 602.706C892.658 602.393 893.068 601.893 893.285 601.207C893.502 600.52 893.454 599.876 893.142 599.273C892.829 598.671 892.329 598.261 891.642 598.044L840.498 581.871Z" fill="#FF4726"/>
<path d="M884.669 658.939L807.062 626.795L812.848 612.826L847.216 627.061L815.098 607.394L820.562 594.201L898.169 626.344L892.337 640.424L857.968 626.189L890.041 645.967L884.669 658.939Z" fill="#FF4726"/>
<path d="M875.041 677.533L871.426 675.642C872.149 677.193 872.513 678.828 872.517 680.546C872.555 682.372 872.148 684.1 871.295 685.73C870.591 687.077 869.64 688.205 868.442 689.113C867.279 690.129 866.014 690.822 864.647 691.191C863.314 691.667 861.88 691.82 860.345 691.649C858.843 691.586 857.419 691.202 856.072 690.497L800.247 661.298C797.482 659.852 795.662 657.636 794.786 654.65C793.874 651.735 794.14 648.895 795.586 646.13C796.439 644.5 797.591 643.161 799.041 642.114C800.455 641.138 802.005 640.504 803.692 640.213L784.339 630.091L791.292 616.799L882.049 664.135L875.041 677.533ZM814.112 645.664C813.474 645.33 812.832 645.264 812.184 645.467C811.536 645.67 811.045 646.091 810.712 646.729C810.378 647.367 810.312 648.01 810.515 648.657C810.718 649.305 811.139 649.796 811.777 650.13L859.307 674.991C859.945 675.324 860.588 675.39 861.236 675.187C861.884 674.984 862.375 674.564 862.708 673.926C863.042 673.288 863.107 672.645 862.905 671.997C862.702 671.349 862.281 670.858 861.643 670.525L814.112 645.664Z" fill="#FF4726"/>
<path d="M850.17 719.764C848.355 722.592 845.846 724.356 842.64 725.056C839.435 725.757 836.418 725.2 833.59 723.386L783.087 690.991C780.258 689.177 778.494 686.667 777.794 683.462C777.094 680.256 777.651 677.24 779.465 674.411L785.555 664.917C787.369 662.089 789.879 660.324 793.084 659.624C796.29 658.924 799.306 659.481 802.135 661.295L852.638 693.69C855.466 695.504 857.23 698.013 857.931 701.219C858.631 704.424 858.074 707.441 856.26 710.269L850.17 719.764ZM796.698 675.771C796.092 675.382 795.458 675.26 794.794 675.405C794.131 675.55 793.605 675.926 793.217 676.532C792.828 677.138 792.706 677.772 792.851 678.436C792.996 679.099 793.371 679.625 793.977 680.013L839.127 708.974C839.733 709.363 840.368 709.485 841.031 709.34C841.694 709.195 842.22 708.82 842.609 708.214C842.998 707.608 843.12 706.973 842.975 706.31C842.83 705.647 842.454 705.121 841.848 704.732L796.698 675.771Z" fill="#FF4726"/>
<path d="M828.087 750.383L818.84 762.345L752.287 710.897L761.535 698.935L786.883 718.53C786.444 716.876 786.396 715.171 786.742 713.416C787.039 711.724 787.75 710.15 788.875 708.694C790.783 706.226 793.277 704.766 796.356 704.315C799.386 703.927 802.135 704.687 804.603 706.595L840.491 734.338L831.17 746.395L799.27 721.735C798.7 721.295 798.079 721.118 797.406 721.204C796.732 721.29 796.175 721.618 795.735 722.188C795.295 722.757 795.118 723.379 795.204 724.052C795.29 724.726 795.618 725.282 796.188 725.723L828.087 750.383Z" fill="#FF4726"/>
<path d="M791.259 792.152L729.536 735.176L739.792 724.066L765.98 748.24L769.398 744.537L743.21 720.363L753.466 709.252L815.189 766.228L804.933 777.339L778.745 753.165L775.326 756.868L801.515 781.042L791.259 792.152Z" fill="#FF4726"/>
<path d="M775.458 806.776L752.056 779.896L745.902 785.254C743.368 787.46 740.464 788.45 737.191 788.224C733.918 787.997 731.178 786.617 728.972 784.083L712.976 765.71C710.77 763.176 709.78 760.272 710.006 756.999C710.233 753.726 711.613 750.986 714.147 748.78L731.705 733.494L786.862 796.848L775.458 806.776ZM728.654 753.016L726.753 754.67C726.21 755.143 725.915 755.718 725.868 756.395C725.821 757.072 726.034 757.683 726.507 758.226L738.327 771.801C738.799 772.344 739.374 772.639 740.052 772.686C740.729 772.733 741.339 772.52 741.882 772.047L743.782 770.393L728.654 753.016ZM746.949 831.596L691.792 768.243L703.196 758.314L758.353 821.668L746.949 831.596Z" fill="#FF4726"/>
<path d="M712.629 855.191L664.466 786.37L676.854 777.701L698.183 808.179L681.671 774.33L693.37 766.142L741.534 834.962L729.048 843.701L707.718 813.223L724.132 847.141L712.629 855.191ZM727.04 862.389C724.563 858.849 723.545 855.998 723.984 853.836C724.404 851.784 725.924 849.841 728.546 848.007C730.054 846.951 731.423 846.188 732.656 845.716C733.888 845.245 735.061 845.107 736.175 845.304C737.335 845.566 738.436 846.163 739.478 847.093C740.566 848.09 741.729 849.473 742.968 851.242L737.167 855.302C736.387 854.188 735.725 853.381 735.181 852.883C734.637 852.385 734.152 852.041 733.727 851.851C733.346 851.726 733.002 851.723 732.694 851.841C732.432 852.024 732.17 852.208 731.908 852.391C731.646 852.575 731.383 852.758 731.121 852.942C730.905 853.191 730.79 853.515 730.777 853.915C730.81 854.38 730.967 854.954 731.249 855.635C731.531 856.317 732.061 857.215 732.841 858.329L727.04 862.389Z" fill="#FF4726"/>
</svg>
