<svg width="928" height="928" viewBox="0 0 928 928" fill="none" xmlns="http://www.w3.org/2000/svg">
<path d="M399.698 4.10097L414.488 86.7886L399.605 89.4509L387.054 19.2845L381.62 20.2565L394.171 90.4228L379.287 93.0851L364.497 10.3975L399.698 4.10097Z" fill="#FF4726"/>
<path d="M432.586 85.3177L432.299 82.0904C431.138 83.4788 429.749 84.5661 428.132 85.3524C426.588 86.052 424.899 86.4832 423.067 86.6462C421.393 86.795 419.901 86.7269 418.591 86.4419C417.274 86.0772 416.087 85.3795 415.032 84.349C414.056 83.3113 413.24 81.8177 412.585 79.8681C411.923 77.8388 411.453 75.2702 411.177 72.1625L409.593 54.3528C409.373 51.8826 409.671 49.8081 410.485 48.1293C411.372 46.3638 412.795 44.7514 414.754 43.2922L427.952 33.2034L426.432 16.1108C426.368 15.3937 426.076 14.8173 425.555 14.3817C425.034 13.9461 424.416 13.7602 423.698 13.824C422.981 13.8878 422.405 14.18 421.969 14.7006C421.534 15.2212 421.348 15.8401 421.411 16.5573L422.676 30.7812L407.616 32.1206L406.128 15.3866C405.83 12.0398 406.734 9.10822 408.839 6.59183C410.945 4.07543 413.671 2.66841 417.018 2.37077L428.253 1.37155C431.6 1.0739 434.532 1.97777 437.048 4.08314C439.564 6.1885 440.971 8.91458 441.269 12.2614L447.647 83.9783L432.586 85.3177ZM429.217 47.4272C427.527 48.3003 426.313 49.091 425.573 49.7994C424.825 50.4281 424.54 51.7385 424.717 53.7306L426.28 71.3012C426.344 72.0184 426.636 72.5948 427.157 73.0304C427.677 73.466 428.296 73.6519 429.013 73.5881C429.731 73.5243 430.307 73.2321 430.743 72.7115C431.178 72.1909 431.364 71.572 431.3 70.8548L429.217 47.4272Z" fill="#FF4726"/>
<path d="M484.994 0.147319L484.67 84.1467L469.55 84.0883L469.825 12.8089L464.305 12.7875L464.03 84.067L448.91 84.0086L449.234 0.00927734L484.994 0.147319Z" fill="#FF4726"/>
<path d="M523.378 3.5118L515.937 87.1816L500.876 85.8422L504.172 48.7884L495.019 85.3213L480.796 84.0563L488.237 0.386564L503.417 1.73658L500.121 38.7903L509.393 2.26808L523.378 3.5118Z" fill="#FF4726"/>
<path d="M549.217 7.79791L564.101 10.4602L549.289 93.2659L534.406 90.6036L540.047 59.0642C538.784 60.2199 537.294 61.0506 535.579 61.5563C533.941 62.0762 532.217 62.1741 530.406 61.8502C527.335 61.3008 524.887 59.7658 523.062 57.2451C521.316 54.7385 520.718 51.9496 521.267 48.8784L529.254 4.22707L544.256 6.91048L537.157 46.6005C537.03 47.3093 537.16 47.9422 537.548 48.4992C537.936 49.0562 538.485 49.3981 539.194 49.5249C539.902 49.6517 540.535 49.5211 541.092 49.1331C541.649 48.7451 541.991 48.1967 542.118 47.488L549.217 7.79791Z" fill="#FF4726"/>
<path d="M586.583 50.3477L593.327 30.5868C593.844 29.0726 594.638 27.7374 595.709 26.5813C596.806 25.3495 598.014 24.4094 599.334 23.7611C600.756 23.0629 602.251 22.6435 603.821 22.5029C605.466 22.3881 607.046 22.5892 608.56 23.106L619.236 26.7493C620.75 27.2661 622.085 28.0599 623.241 29.1308C624.473 30.2274 625.4 31.4737 626.023 32.8696C626.747 34.2156 627.166 35.7112 627.281 37.3564C627.421 38.926 627.233 40.4679 626.717 41.9821L621.639 56.8595C620.192 61.0994 617.991 64.5749 615.037 67.2861C612.083 69.9973 608.941 72.5174 605.61 74.8464C602.305 77.0997 599.075 79.5053 595.92 82.0632C592.866 84.5713 590.427 87.7542 588.603 91.6119L607.796 98.1622L603.688 110.2L570.072 98.7277L574.18 86.6894C575.471 83.1568 577.035 80.1827 578.874 77.7672C580.788 75.3774 582.852 73.2924 585.066 71.512C587.28 69.7316 589.517 68.1284 591.779 66.7025C594.117 65.3025 596.329 63.7751 598.415 62.1202C600.577 60.4913 602.539 58.5826 604.3 56.3941C606.061 54.2057 607.497 51.4837 608.608 48.2281L611.399 40.0512C611.632 39.3698 611.598 38.7244 611.299 38.1151C611 37.5058 610.51 37.0849 609.828 36.8523C609.147 36.6197 608.501 36.6531 607.892 36.9523C607.283 37.2516 606.862 37.7419 606.629 38.4233L600.893 55.2314L586.583 50.3477Z" fill="#FF4726"/>
<path d="M605.652 111.404L610.981 98.8045L623.691 104.18L618.362 116.78L605.652 111.404Z" fill="#FF4726"/>
<path d="M679.542 53.1996C682.536 54.7237 684.541 57.0458 685.556 60.1658C686.571 63.2857 686.317 66.3429 684.793 69.3373L657.576 122.809C656.052 125.804 653.73 127.809 650.61 128.824C647.49 129.839 644.433 129.585 641.438 128.06L631.386 122.944C628.391 121.42 626.386 119.097 625.371 115.978C624.356 112.858 624.61 109.8 626.135 106.806L653.351 53.334C654.875 50.3395 657.197 48.3347 660.317 47.3195C663.437 46.3043 666.495 46.5588 669.489 48.0829L679.542 53.1996ZM641.079 110.777C640.753 111.419 640.694 112.062 640.904 112.708C641.114 113.353 641.54 113.839 642.182 114.166C642.824 114.493 643.467 114.551 644.113 114.341C644.758 114.131 645.244 113.705 645.571 113.063L669.903 65.2593C670.229 64.6176 670.287 63.974 670.077 63.3285C669.867 62.683 669.441 62.197 668.8 61.8704C668.158 61.5438 667.515 61.4855 666.869 61.6955C666.224 61.9056 665.738 62.3314 665.411 62.9731L641.079 110.777Z" fill="#FF4726"/>
</svg>
